PathFileType	4	(X/Y/Z)	./resultDataOpenSim/trcMotMarkerGrf/sub06/qtm-13-07.trc
DataRate	CameraRate	NumFrames	NumMarkers	Units	OrigDataRate	OrigDataStartFrame	OrigNumFrames
250.000000	250.000000	12	24	m	250.000000	195	519
Frame#	Time	L.Toe.Tip			R.Toe.Tip			L.Ankle.Lat			R.Ankle.Lat			L.Ankle.Med			R.Ankle.Med			L.Heel			R.Heel			L.Knee.Lat			R.Knee.Lat			L.Knee.Med			R.Knee.Med			L.Thigh.Upper			R.Thigh.Upper			L.ASIS			R.ASIS			V.Sacral			L.Acromium			R.Acromium			C7			L.Elbow			R.Elbow			L.Wrist.Lat			R.Wrist.Lat
		X1	Y1	Z1	X2	Y2	Z2	X3	Y3	Z3	X4	Y4	Z4	X5	Y5	Z5	X6	Y6	Z6	X7	Y7	Z7	X8	Y8	Z8	X9	Y9	Z9	X10	Y10	Z10	X11	Y11	Z11	X12	Y12	Z12	X13	Y13	Z13	X14	Y14	Z14	X15	Y15	Z15	X16	Y16	Z16	X17	Y17	Z17	X18	Y18	Z18	X19	Y19	Z19	X20	Y20	Z20	X21	Y21	Z21	X22	Y22	Z22	X23	Y23	Z23	X24	Y24	Z24

195	0.776	0.062715335	-0.015330181	-0.061116162	-0.51475198	0.098227624	0.10235887	-0.058937592	0.016430692	-0.092166061	-0.52136291	0.23883823	0.11596265	-0.064891521	0.03152814	-0.0047488392	-0.48081147	0.21875051	0.037602119	-0.13773655	-0.0083921575	-0.052481967	-0.54439119	0.27732328	0.047193179	0.023726422	0.38031729	-0.11407121	-0.16723895	0.35338148	0.17270517	0.00065236548	0.38114567	0.0044048503	-0.16572795	0.33324192	0.038215801	-0.10627659	0.75252167	-0.18831562	-0.19966952	0.71680498	0.14567712	-0.050234339	0.78790783	-0.12694818	-0.091060891	0.77309723	0.11456485	-0.25880995	0.86476071	-0.028500668	-0.12172333	1.2517204	-0.21896129	-0.13019832	1.263345	0.14486948	-0.20407995	1.2997205	-0.042766552	-0.22334262	0.95637163	-0.25127975	-0.17868505	0.9453985	0.22501639	-0.16071865	0.73002485	-0.31770052	0.031190568	0.8090423	0.22361256
196	0.78	0.062657091	-0.015325121	-0.061136016	-0.49733628	0.099468591	0.10286396	-0.059028812	0.016491465	-0.092260299	-0.50528359	0.23998235	0.11627987	-0.065001826	0.031648746	-0.0047870789	-0.46493348	0.22020703	0.037856177	-0.1377939	-0.0082457957	-0.052528981	-0.52931178	0.27818485	0.047521686	0.025452479	0.38009836	-0.1138989	-0.1526151	0.35564514	0.17302983	0.00030600881	0.38145643	0.004512537	-0.15132839	0.33539519	0.03846197	-0.10028197	0.75404485	-0.18864091	-0.19277065	0.7189115	0.1455373	-0.044278208	0.78973057	-0.12746691	-0.084992157	0.77545732	0.11449321	-0.25293865	0.86699626	-0.028155603	-0.11397619	1.2538863	-0.21890178	-0.12362179	1.2655067	0.14486608	-0.19683417	1.30182	-0.042976501	-0.21414341	0.95763515	-0.25190996	-0.1743328	0.94796499	0.22412393	-0.1481565	0.73191413	-0.31737618	0.032917116	0.80792332	0.22394082
197	0.784	0.062608392	-0.01531809	-0.06113836	-0.47965599	0.10044626	0.1032706	-0.059052058	0.01658574	-0.092289276	-0.48937765	0.24072942	0.11652757	-0.065127006	0.031802043	-0.0048614654	-0.44892614	0.221451	0.03799623	-0.1378479	-0.0081092134	-0.052559743	-0.51425676	0.27873217	0.047881561	0.027033306	0.37991999	-0.11362561	-0.13807947	0.35815467	0.17324774	-0.00023250855	0.38191866	0.0045960224	-0.13675588	0.3377448	0.038710581	-0.094219883	0.75552733	-0.18898834	-0.18579239	0.72104681	0.14542303	-0.038399789	0.79164208	-0.12793347	-0.078946493	0.7778863	0.11443723	-0.24619894	0.86917718	-0.028034087	-0.10631639	1.2561436	-0.21878383	-0.11711042	1.2677426	0.14489315	-0.18962474	1.3039856	-0.043151042	-0.20505586	0.95900007	-0.25237184	-0.16976558	0.95064543	0.22324852	-0.13552279	0.73396874	-0.31701878	0.03438297	0.80692175	0.22432195
198	0.788	0.062563481	-0.015309285	-0.061130866	-0.46172803	0.10118362	0.10361194	-0.059032738	0.016712152	-0.092275209	-0.47360626	0.24111765	0.11673298	-0.065280523	0.031989657	-0.0049790239	-0.43282731	0.22247741	0.038092578	-0.13789917	-0.0079810785	-0.052565233	-0.49927824	0.27894146	0.048291079	0.028416226	0.37977342	-0.11329928	-0.12363074	0.36090466	0.17336239	-0.00085009222	0.38243633	0.0046741706	-0.12195044	0.34031184	0.038928258	-0.088153056	0.75698081	-0.18934221	-0.17909125	0.72320134	0.14516357	-0.032561888	0.793644	-0.12836533	-0.07287461	0.78039377	0.11435132	-0.23875192	0.87130094	-0.028202709	-0.098772202	1.2584875	-0.21860511	-0.11066576	1.2700454	0.14494359	-0.18245642	1.3062027	-0.043290956	-0.19601047	0.96044428	-0.25282131	-0.16517058	0.95344124	0.22242226	-0.12283146	0.73617973	-0.31662408	0.03573689	0.80601648	0.22472344
199	0.792	0.062518262	-0.015298283	-0.061122904	-0.44354219	0.10172761	0.10393668	-0.058997115	0.016871238	-0.092236595	-0.4577558	0.24126768	0.11701116	-0.065532013	0.032208471	-0.0051181752	-0.41668019	0.22329134	0.038245326	-0.13794295	-0.0078243453	-0.052614302	-0.48437035	0.27881674	0.048764049	0.029600526	0.37967981	-0.11294524	-0.10926404	0.36390578	0.17339179	-0.001491672	0.3829481	0.0047574455	-0.10702149	0.34303946	0.03906318	-0.082157403	0.7584104	-0.18967868	-0.17280589	0.7254528	0.14484955	-0.026707588	0.79572878	-0.12878168	-0.066774145	0.78297934	0.1142276	-0.23105713	0.87339918	-0.028567464	-0.091323044	1.2609109	-0.21839913	-0.10427866	1.2724039	0.14501374	-0.17532991	1.3084516	-0.043401709	-0.18696698	0.96194284	-0.25335177	-0.16071246	0.95633948	0.22166032	-0.11007252	0.73854261	-0.31619669	0.037065208	0.80519587	0.2251315
200	0.796	0.062471169	-0.015286195	-0.061120598	-0.42504712	0.10212094	0.10430521	-0.05896007	0.0170586	-0.092186334	-0.4415328	0.24132182	0.11751288	-0.065872099	0.032456354	-0.0052502191	-0.40051234	0.22389662	0.03848676	-0.13797624	-0.0076149472	-0.052750395	-0.4694858	0.27836807	0.049304338	0.030601111	0.37966961	-0.11259043	-0.094973553	0.36716923	0.17335658	-0.0021488642	0.38340961	0.004831914	-0.092194827	0.34590182	0.039078444	-0.076316908	0.75981474	-0.18999357	-0.16672413	0.72792291	0.14486519	-0.020838158	0.79786667	-0.1291874	-0.06065357	0.78563414	0.11407892	-0.22348523	0.87549221	-0.029113278	-0.083918595	1.2634038	-0.21819955	-0.097928954	1.2748001	0.14510036	-0.16824423	1.3107127	-0.043490929	-0.17792336	0.96348178	-0.25396003	-0.15638134	0.95930846	0.22095158	-0.097226052	0.74105638	-0.31575605	0.038357422	0.80446351	0.22555528
201	0.8	0.062416008	-0.015280062	-0.06112096	-0.4062178	0.10236036	0.10473775	-0.05894068	0.017262224	-0.092154945	-0.42484079	0.2413092	0.11828109	-0.066166176	0.032727665	-0.0053770966	-0.38436241	0.22429567	0.038786036	-0.1380101	-0.0073837278	-0.052905581	-0.45458733	0.27758332	0.049906849	0.031413299	0.37976814	-0.11227485	-0.080755889	0.37069172	0.17326992	-0.0028219667	0.38379076	0.0048728105	-0.077576223	0.34897001	0.038939823	-0.070747901	0.76118695	-0.19029556	-0.16060484	0.73065456	0.14537528	-0.014994326	0.80002082	-0.12958195	-0.054505141	0.78834338	0.11391594	-0.2161786	0.87760767	-0.029868949	-0.07650813	1.2659514	-0.21801877	-0.091591987	1.2772129	0.14519779	-0.16120026	1.3129737	-0.043561422	-0.16888186	0.96505934	-0.25461468	-0.15207186	0.96231632	0.22027804	-0.084309162	0.74371183	-0.31531737	0.03957915	0.80382844	0.2260076
202	0.804	0.062339028	-0.015295274	-0.061110323	-0.38710643	0.10240779	0.10519789	-0.05896491	0.017470249	-0.092184651	-0.40796912	0.24107184	0.11916119	-0.06630689	0.03301847	-0.0055240823	-0.36828797	0.2244994	0.039105985	-0.1380658	-0.0071786818	-0.05298921	-0.43966961	0.27644215	0.050563435	0.032011367	0.37998899	-0.11203933	-0.066616375	0.37444807	0.17313612	-0.0034592267	0.38410488	0.004880747	-0.06308622	0.3523161	0.038619347	-0.065503209	0.7625225	-0.19059452	-0.15413902	0.73356424	0.14599611	-0.0091982562	0.80216578	-0.12997607	-0.048312468	0.79109073	0.11373657	-0.20922446	0.87978757	-0.030758064	-0.069096372	1.2685295	-0.2178453	-0.085247905	1.2796234	0.14529712	-0.15420081	1.3152308	-0.043605719	-0.15985132	0.96667812	-0.25529156	-0.14777549	0.96534876	0.21964373	-0.071367256	0.74648896	-0.31487616	0.040722428	0.80329397	0.22649503
203	0.808	0.062231898	-0.015342672	-0.061078882	-0.3677805	0.10225444	0.10565343	-0.059051448	0.017679421	-0.092299798	-0.3913673	0.24038812	0.1199267	-0.066346497	0.033344367	-0.0056879948	-0.35225862	0.22452117	0.03944459	-0.13814588	-0.00698852	-0.053020636	-0.42474198	0.27494257	0.051273574	0.032384834	0.38032825	-0.11190489	-0.052572521	0.37839951	0.17295398	-0.0039885922	0.38440697	0.0048692392	-0.048639071	0.35591485	0.038147515	-0.060466136	0.76383063	-0.19089716	-0.14677743	0.73649449	0.14608785	-0.0034501771	0.8042856	-0.13038846	-0.04206081	0.79386442	0.11352909	-0.20268513	0.88204298	-0.031572838	-0.061749096	1.2711138	-0.21766024	-0.078886177	1.2820165	0.14538786	-0.14724491	1.3174826	-0.043613555	-0.1508526	0.96833635	-0.25597825	-0.14357653	0.96840218	0.2190665	-0.058415739	0.74937265	-0.31442112	0.041804115	0.80285786	0.22701602
204	0.812	0.062112751	-0.015403943	-0.061042367	-0.34824614	0.10193925	0.1061057	-0.059196	0.017899376	-0.092489791	-0.3752385	0.23917301	0.12048346	-0.066414156	0.033729205	-0.0058354647	-0.33609018	0.22435498	0.039845772	-0.13821469	-0.006740822	-0.053078665	-0.40982326	0.27310536	0.052050847	0.032572793	0.38076232	-0.11186094	-0.03864677	0.3825057	0.17271711	-0.004391502	0.38473777	0.0048234105	-0.034247211	0.35969103	0.037593557	-0.055485352	0.76513197	-0.19119398	-0.13827482	0.73931979	0.1453679	0.002252005	0.80636754	-0.13083712	-0.035738087	0.79666184	0.11328122	-0.19652355	0.88435442	-0.032115157	-0.054507879	1.2736954	-0.21746071	-0.072500237	1.2843808	0.14546251	-0.14032499	1.3197204	-0.043585401	-0.14190068	0.97002653	-0.25667463	-0.13949132	0.97146982	0.21854442	-0.045440966	0.75236063	-0.3139495	0.04284135	0.80251852	0.22756802
205	0.816	0.062019548	-0.015438389	-0.061031709	-0.32845387	0.10151109	0.10656263	-0.059356767	0.018151625	-0.092703531	-0.35944789	0.23752202	0.1208969	-0.066548982	0.034173908	-0.0059583441	-0.31965812	0.2239689	0.040335537	-0.13823763	-0.0063866529	-0.053183211	-0.39496461	0.27096386	0.052909176	0.032644446	0.38125748	-0.11187786	-0.024856068	0.38673106	0.17241513	-0.0046318205	0.38510156	0.0047267074	-0.01995425	0.36362704	0.037011949	-0.050561145	0.76644337	-0.19146104	-0.1292435	0.74205551	0.14426665	0.0079187088	0.80840411	-0.13133639	-0.029336328	0.79948671	0.1129816	-0.1906268	0.8867118	-0.032383406	-0.04734975	1.2762787	-0.21725684	-0.06607984	1.2867075	0.14551849	-0.13343267	1.3219264	-0.043534267	-0.13299325	0.97173733	-0.2573904	-0.13541963	0.97454033	0.21804615	-0.032437774	0.75545462	-0.31346515	0.043835173	0.80227732	0.22815918
206	0.82	0.061970737	-0.015428422	-0.061057643	-0.30837246	0.10099612	0.10703202	-0.059476811	0.018455965	-0.092880211	-0.34376049	0.23556576	0.12126103	-0.066683317	0.034657675	-0.0060859329	-0.30308811	0.22333045	0.040854078	-0.13823028	-0.0059422445	-0.053322802	-0.38022728	0.26854308	0.053836446	0.032647413	0.38178427	-0.11193452	-0.011207505	0.39105076	0.17204274	-0.0045990185	0.38549006	0.004579697	-0.0058118259	0.3677656	0.036442951	-0.045789389	0.76776798	-0.19169585	-0.12062194	0.74481356	0.14351803	0.013580567	0.81039181	-0.13189298	-0.022848929	0.80233864	0.11261849	-0.18487142	0.88910348	-0.032528507	-0.040238734	1.2788637	-0.21705425	-0.059611117	1.288987	0.14555522	-0.12656373	1.324083	-0.043474258	-0.12412764	0.97345669	-0.25813363	-0.13123078	0.97759497	0.21753104	-0.019412963	0.758653	-0.31296959	0.044780864	0.80213479	0.2288051
